<?xml version="1.0" encoding="UTF-8" standalone="no"?>
<!-- Generator: Adobe Illustrator 12.0.1, SVG Export Plug-In . SVG Version: 6.00 Build 51448)  -->
<svg xmlns:dc="http://purl.org/dc/elements/1.1/" xmlns:cc="http://web.resource.org/cc/" xmlns:rdf="http://www.w3.org/1999/02/22-rdf-syntax-ns#" xmlns:svg="http://www.w3.org/2000/svg" xmlns="http://www.w3.org/2000/svg" xmlns:sodipodi="http://sodipodi.sourceforge.net/DTD/sodipodi-0.dtd" xmlns:inkscape="http://www.inkscape.org/namespaces/inkscape" version="1.1" id="Layer_1" width="74" height="74" viewBox="0 0 74 74" overflow="visible" enable-background="new 0 0 74 74" xml:space="preserve" sodipodi:version="0.32" inkscape:version="0.44.1" sodipodi:docname="Lotus-buddha.svg" sodipodi:docbase="C:\Documents and Settings\Admin\My Documents"><metadata id="metadata1934"><rdf:RDF><cc:Work rdf:about=""><dc:format>image/svg+xml</dc:format><dc:type rdf:resource="http://purl.org/dc/dcmitype/StillImage"/></cc:Work></rdf:RDF></metadata><defs id="defs1932">
	

	
</defs><sodipodi:namedview inkscape:window-height="968" inkscape:window-width="1280" inkscape:pageshadow="2" inkscape:pageopacity="0.0" guidetolerance="10.0" gridtolerance="10.0" objecttolerance="10.0" borderopacity="1.0" bordercolor="#666666" pagecolor="#ffffff" id="base" inkscape:zoom="5.0540541" inkscape:cx="37" inkscape:cy="37" inkscape:window-x="-4" inkscape:window-y="-4" inkscape:current-layer="Layer_1"/>
<g id="g6406"><path id="path3738" d="M 35.907873,20.170133 C 35.589815,20.328254 35.271757,20.779442 35.192697,21.310599 C 35.086829,21.840848 34.767862,22.292036 34.36938,22.503772 C 33.653749,22.902254 33.069885,24.334879 33.229368,25.289054 C 33.308883,25.687536 33.229368,25.978332 32.963108,26.085109 C 32.671403,26.191431 32.618242,26.563559 32.751826,28.022538 C 33.017178,30.542923 33.1235,30.781467 33.839131,30.67469 C 34.184906,30.621983 34.50251,30.701952 34.554762,30.833719 C 34.661085,31.099525 34.395733,31.258554 32.193861,32.213638 C 30.151018,33.088753 29.938828,33.327751 29.69983,35.078889 C 29.594416,35.822236 29.302257,37.811464 29.063713,39.483087 C 28.825624,41.153802 28.692039,42.719558 28.7452,42.932203 C 28.824715,43.223453 28.320365,43.728257 27.206253,44.496595 C 24.660423,46.195026 23.625825,47.310048 23.625825,48.343283 C 23.625825,49.405598 24.395072,50.280712 25.535538,50.492448 C 26.013534,50.571509 31.451422,50.625124 37.606305,50.571509 C 48.483444,50.492448 48.801502,50.465186 49.545759,49.934938 C 50.420874,49.272013 50.631701,48.104739 50.047837,46.964273 C 49.837009,46.540347 48.721534,45.584354 47.502916,44.7883 C 45.725424,43.62148 45.37965,43.276614 45.485517,42.825426 C 45.592749,42.375146 45.167005,38.978738 44.398667,34.228764 C 44.239638,33.194621 43.655319,32.769786 41.216266,31.921024 C 40.234829,31.576158 39.384251,31.151323 39.30519,30.965941 C 39.251575,30.780558 39.411513,30.726488 39.757288,30.833265 C 40.525625,31.099071 40.843229,30.382076 41.056328,27.941661 C 41.162651,26.535388 41.136297,25.952433 40.898208,25.952433 C 40.73827,25.952433 40.60514,25.474891 40.60514,24.757897 C 40.60514,23.723753 40.474282,23.404332 39.677319,22.60964 C 39.172515,22.105745 38.748588,21.469174 38.748588,21.177015 C 38.746771,20.14378 37.154662,19.559461 35.907873,20.170133 z "/><path style="fill: rgb(222, 188, 50); fill-opacity: 1; stroke: none;" id="path3736" d="M 38.003423,21.708172 C 38.269229,22.212976 38.825831,23.034475 39.303373,23.512017 C 39.96766,24.22992 40.073074,24.54707 39.939944,25.10458 C 39.701854,26.032402 39.675501,26.058755 39.012122,25.687536 C 38.480965,25.395377 35.455776,25.42173 34.50251,25.687536 C 34.209896,25.793858 34.077675,25.581214 34.024514,24.970542 C 33.944999,24.148134 34.104028,23.883691 35.403978,22.822285 C 35.643885,22.636902 35.828359,22.185714 35.828359,21.840848 C 35.828359,21.177924 36.491283,20.621322 37.155571,20.726735 C 37.367761,20.753089 37.765334,21.204277 38.003423,21.708172 z "/><path style="fill: rgb(222, 188, 50); fill-opacity: 1; stroke: none;" id="path1925" d="M 31.848541,45.028207 C 32.989007,45.558455 33.679193,45.691131 35.032304,45.663869 C 35.987842,45.663869 37.711718,45.637516 38.904891,45.637516 C 40.789614,45.611162 41.267156,45.505749 42.806103,44.761492 L 44.530888,43.886377 L 46.651883,45.29265 C 49.279044,46.989718 49.677072,47.440906 49.570749,48.39599 C 49.41172,49.802262 49.145914,49.827707 37.021986,49.827707 C 25.031188,49.827707 24.606353,49.775 24.500485,48.501403 C 24.420516,47.678996 24.738575,47.255524 26.357491,46.087341 C 27.047223,45.610708 28.001853,44.919158 28.453041,44.575655 C 29.381317,43.914094 29.567608,43.940447 31.848541,45.028207 z "/><path style="fill: rgb(222, 188, 50); fill-opacity: 1; stroke: none;" id="path3734" d="M 39.012122,26.748942 C 39.621431,27.358251 39.967206,27.410958 40.15168,26.934324 C 40.363416,26.455874 40.363416,27.862146 40.178033,28.81723 C 40.07262,29.37474 39.887237,29.586931 39.648693,29.480154 C 39.037567,29.268418 38.480511,29.931342 38.480511,30.860073 C 38.480511,31.550713 38.613186,31.788803 39.222495,32.000539 C 42.219513,33.114652 43.070092,33.538578 43.414049,34.043382 C 43.627148,34.361894 43.919762,35.581421 44.05062,36.72325 C 44.183296,37.89007 44.42184,39.509441 44.581778,40.359111 C 44.925735,42.135694 44.792605,42.745911 43.972469,43.249807 C 43.254566,43.700995 40.760534,44.683341 39.700037,44.919613 C 38.984406,45.081822 38.956689,45.05456 39.275202,44.656079 C 39.56827,44.312576 39.56827,44.099477 39.328818,43.700995 C 38.983951,43.144393 39.196142,43.065333 40.150317,43.435189 C 40.707827,43.648288 40.94728,43.515158 42.035039,42.427399 L 43.254566,41.179247 L 42.565288,39.138221 C 42.1141,37.784656 41.74288,37.09447 41.478437,37.09447 C 41.212631,37.09447 41.132662,37.227145 41.265338,37.546567 C 41.370752,37.81101 41.610204,38.607064 41.796496,39.324058 C 42.007323,40.014699 42.220422,40.676715 42.327653,40.756684 C 42.405804,40.835744 42.087292,41.286932 41.636103,41.764474 C 40.866402,42.560529 40.707373,42.614144 39.515109,42.481469 C 38.400087,42.348793 38.186988,42.4015 37.577679,43.012626 C 37.206006,43.382937 36.888402,43.595581 36.888402,43.461997 C 36.888402,43.329321 36.596242,43.012626 36.199124,42.772719 C 35.668875,42.4015 35.349454,42.376055 34.66063,42.588245 C 33.864576,42.826335 33.678739,42.772719 32.803624,42.031643 L 31.822187,41.208327 L 32.379244,39.643025 C 32.988553,37.812827 33.041714,37.361639 32.564172,37.361639 C 32.271558,37.361639 31.953954,38.211309 31.157445,41.07656 C 31.104739,41.31374 31.555927,42.004381 32.245659,42.667305 C 33.359772,43.781418 33.492902,43.836397 34.235341,43.543329 C 35.057749,43.223907 35.269939,43.382937 34.712428,43.94181 C 34.501147,44.152638 34.501147,44.340292 34.76559,44.658805 C 35.481221,45.507566 33.784153,45.055469 30.573581,43.544692 C 29.326338,42.960828 29.167309,42.456933 29.592144,40.785763 C 29.80388,39.9888 29.990626,38.901041 29.990626,38.369883 C 29.990626,37.813281 30.096039,36.858198 30.255977,36.24798 C 30.388199,35.611409 30.57449,34.815355 30.627651,34.444135 C 30.733519,33.94024 31.157445,33.594465 32.245659,33.037863 C 33.041714,32.639382 33.890021,32.320869 34.102665,32.320869 C 34.686075,32.320869 35.296293,31.552077 35.296293,30.755568 C 35.296293,29.906806 34.712428,29.270235 34.102665,29.508325 C 33.784153,29.614647 33.704638,29.456527 33.704638,28.76634 C 33.704638,28.262445 33.625123,27.652227 33.545609,27.439128 C 33.439741,27.146969 33.492902,27.041556 33.757345,27.146969 C 33.969081,27.226938 34.367562,27.067909 34.633368,26.749396 C 35.324918,25.979695 38.242876,25.979695 39.012122,26.748942 z "/></g>
<g id="g6395"><path d="M 38.35104,72.7745 C 39.08736,72.08108 40.74564,70.935572 42.034668,70.190516 C 44.823792,68.62022 46.873476,66.675836 47.401848,65.050784 C 47.584524,64.410092 47.847228,63.849584 47.979048,63.770492 C 48.084504,63.6914 48.9801,63.957068 49.953696,64.330064 C 51.95268,65.15624 53.083524,65.129876 56.584632,64.170788 C 57.688176,63.87782 59.635368,63.477368 60.950916,63.318248 L 63.317124,62.99798 L 63.475308,60.868112 C 63.553464,59.695304 63.94986,57.537044 64.344384,56.072204 C 65.159796,53.062496 65.134368,51.491108 64.266228,49.54688 C 63.975288,48.880916 63.712584,48.188432 63.712584,48.028376 C 63.712584,47.8418 64.266228,47.547896 64.948884,47.36132 C 66.607008,46.962896 68.684304,44.859392 70.420584,41.820356 C 71.131476,40.59482 72.237048,38.99816 72.83952,38.278376 L 74.000628,37.000112 L 72.89412,35.747276 C 72.287748,35.054948 71.183112,33.431768 70.395156,32.09828 C 69.632472,30.79256 68.55342,29.1959 67.99962,28.60856 C 67.002624,27.517184 65.159796,26.371676 64.36872,26.371676 C 63.738792,26.371676 63.607908,25.599164 64.08168,24.6134 C 65.080704,22.428308 65.055276,20.51138 63.94986,16.702796 C 63.660792,15.716408 63.344424,13.984496 63.238968,12.839456 L 63.056292,10.789148 L 61.080708,10.601168 C 60.002592,10.46888 57.924516,10.095728 56.477148,9.722264 C 53.478048,8.977676 51.427272,8.896556 49.901904,9.483428 C 47.743644,10.336436 47.560032,10.309136 47.164572,8.923856 C 46.665528,7.246076 44.981976,5.593256 41.719236,3.622508 C 40.298388,2.744072 38.561952,1.598564 37.904724,1.013096 L 36.667488,-0.000124 L 35.275344,1.145384 C 34.485828,1.785608 32.696196,3.010052 31.275816,3.863216 C 28.433496,5.593256 26.777712,7.219712 26.304096,8.843672 C 25.934532,10.149392 25.513644,10.334408 24.356904,9.749408 C 22.068384,8.657564 20.331948,8.683928 16.279692,9.881696 C 15.306096,10.176536 13.596024,10.494932 12.46518,10.601948 L 10.439364,10.788992 L 10.281648,12.785012 C 10.203024,13.879196 9.808968,16.089248 9.387612,17.686844 C 8.571732,21.017444 8.598096,22.66886 9.518496,24.50576 C 9.834864,25.120088 10.018476,25.759688 9.966216,25.919276 C 9.91302,26.105384 9.308052,26.398352 8.650824,26.583368 C 6.861816,27.117044 5.519904,28.47596 3.625908,31.646348 C 2.679144,33.21758 1.441752,35.05448 0.86268,35.721536 C -0.136812,36.893876 -0.163644,36.973436 0.257244,37.452512 C 1.23084,38.544824 2.388516,40.195148 3.6777,42.353408 C 5.703516,45.68354 6.729996,46.668836 9.333948,47.655224 C 10.202556,47.999984 10.202556,48.24116 9.491664,49.734392 C 9.018516,50.718752 8.966256,51.22466 9.071712,53.08886 C 9.1494,54.28616 9.439872,56.178752 9.754836,57.272468 C 10.070736,58.362284 10.413468,60.12212 10.491624,61.132844 C 10.570716,62.172896 10.78116,63.078164 10.939344,63.185648 C 11.096592,63.290168 11.886108,63.398588 12.675156,63.398588 C 13.464672,63.398588 15.54228,63.770648 17.279184,64.197464 C 20.989176,65.130032 21.77916,65.156396 23.726508,64.437704 C 24.513684,64.145672 25.355928,63.849896 25.567308,63.770804 C 25.882272,63.664412 26.145444,64.037408 26.592696,65.103824 C 27.408108,67.128236 28.618512,68.30198 32.14302,70.432004 C 33.801768,71.441792 35.590308,72.642056 36.090288,73.147808 L 37.011624,74.000348 L 38.35104,72.7745 z M 32.197308,58.976612 C 29.959956,58.522496 26.829192,57.244232 24.593244,55.88672 C 20.172828,53.19728 16.516032,48.188432 15.01656,42.75386 C 14.174784,39.716696 14.174784,34.123004 15.01656,31.0601 C 17.884308,20.644604 27.197664,13.879352 37.904724,14.464352 C 43.875468,14.783684 48.928152,17.0474 53.11176,21.310568 C 58.977048,27.25058 61.002396,36.226196 58.294392,44.325248 C 55.819764,51.703112 49.638108,57.13784 41.61378,59.002976 C 39.535704,59.482364 34.615776,59.482364 32.197308,58.976612 z " style="fill: black; fill-opacity: 1; stroke: none; stroke-opacity: 1;" id="path1955"/><path style="fill: rgb(222, 188, 50); fill-opacity: 1; stroke: none; stroke-opacity: 1;" id="path1953" d="M 34.958508,70.776296 C 34.064004,70.136696 32.74908,69.33782 32.012292,68.96576 C 31.301868,68.620064 30.039204,67.66004 29.223168,66.834956 C 27.93414,65.58212 27.697332,65.15624 27.540084,64.065488 C 27.329172,62.65244 27.750996,60.147548 28.302768,59.69546 C 28.539576,59.48252 29.223168,59.56364 30.72264,59.962064 C 32.064396,60.334124 33.932652,60.574364 35.958,60.655484 C 39.009204,60.78824 40.350024,60.602756 44.95452,59.482676 C 45.428136,59.376284 45.61362,59.535404 45.928116,60.33428 C 46.507188,61.745456 46.480824,64.250348 45.82266,65.501312 C 45.164496,66.806096 44.2182,67.63508 41.454504,69.180104 C 40.21914,69.871496 38.851956,70.776764 38.37834,71.176124 C 37.904724,71.576576 37.325652,71.896844 37.062948,71.920244 C 36.799776,71.920868 35.853012,71.416052 34.958508,70.776296 z "/><path style="fill: rgb(222, 188, 50); fill-opacity: 1; stroke: none; stroke-opacity: 1;" id="path1951" d="M 50.531676,63.26474 C 49.901748,63.0245 49.032672,62.52062 48.637212,62.120168 C 47.664552,61.2149 46.796412,59.507948 46.98096,58.922012 C 47.059116,58.682708 47.979048,57.99038 49.006308,57.404444 C 52.293384,55.540244 56.79336,50.744336 58.213272,47.601716 C 58.609824,46.749176 59.16144,46.694576 60.528624,47.388776 C 62.501244,48.427892 63.712272,50.451368 63.712272,52.768748 C 63.712272,53.301956 63.370476,55.140884 62.923224,56.816636 C 62.475972,58.522652 62.134176,60.255188 62.134176,60.707276 C 62.134176,61.692572 61.868508,61.85372 60.028644,62.120324 C 59.239596,62.22578 57.503316,62.59784 56.214132,62.971928 C 53.398956,63.746156 52.0845,63.798884 50.531676,63.26474 z "/><path style="fill: rgb(222, 188, 50); fill-opacity: 1; stroke: none; stroke-opacity: 1;" id="path1949" d="M 17.543448,62.971616 C 16.095768,62.597684 14.253876,62.200196 13.46436,62.093648 C 12.174864,61.9598 12.017616,61.853408 11.938992,61.268408 C 11.886264,60.893384 11.491272,59.109212 11.04402,57.29774 C 9.650004,51.516536 10.176348,49.092608 13.201812,47.54774 C 13.9113,47.173652 14.62266,46.882712 14.753544,46.882712 C 14.884896,46.882712 15.674412,47.920892 16.516188,49.200092 C 18.93762,53.008676 22.171968,55.992176 26.22516,58.229372 C 27.014208,58.682552 26.987844,59.482364 26.118768,60.893384 C 24.408696,63.6914 22.251528,64.197308 17.543448,62.971616 z "/><path style="fill: rgb(222, 188, 50); fill-opacity: 1; stroke: none; stroke-opacity: 1;" id="path1945" d="M 60.6606,46.056692 C 59.29248,45.708968 59.29248,45.81848 60.135192,42.219716 C 60.894912,38.969768 60.950604,35.40236 60.293376,32.498108 C 59.346144,28.368164 59.346144,28.289072 60.16062,27.968804 C 60.580572,27.809528 61.58256,27.62264 62.39688,27.517184 C 63.66048,27.38396 64.13316,27.463052 65.34216,28.022624 C 66.947556,28.768304 67.525692,29.435672 69.369456,32.631488 C 70.053984,33.803828 70.946616,35.161808 71.36844,35.694548 C 71.788392,36.200924 72.131124,36.760028 72.131124,36.920084 C 72.131124,37.080296 71.7639,37.693532 71.313684,38.252168 C 70.868304,38.838104 69.868344,40.384064 69.080232,41.740484 C 67.658292,44.192648 66.000168,45.94952 64.922988,46.164332 C 63.766092,46.403324 61.791444,46.34966 60.6606,46.056692 z "/><path style="fill: rgb(222, 188, 50); fill-opacity: 1; stroke: none; stroke-opacity: 1;" id="path1943" d="M 7.49268,45.389636 C 6.94044,44.964848 6.019104,43.844768 5.439876,42.940436 C 4.861272,42.034232 3.914508,40.543028 3.335904,39.63776 C 2.756364,38.730464 2.125968,37.744232 1.915524,37.426304 C 1.573728,36.893096 1.599624,36.759872 2.310048,35.82668 C 2.730468,35.268044 3.835884,33.563432 4.783116,32.018096 C 7.308444,27.86288 8.912436,26.957612 12.464712,27.756956 L 14.1219,28.102652 L 14.096004,29.036312 C 14.06964,29.54066 13.832364,30.740924 13.569192,31.697984 C 12.938328,34.069496 12.938328,39.637916 13.569192,42.088208 C 14.4378,45.283556 14.4378,45.498368 13.438308,45.94952 C 12.832404,46.217996 11.886108,46.322516 10.517364,46.297244 C 8.728512,46.21784 8.413548,46.13672 7.49268,45.389636 z "/><path style="fill: rgb(222, 188, 50); fill-opacity: 1; stroke: none; stroke-opacity: 1;" id="path1941" d="M 57.529836,25.198244 C 55.582644,21.816008 51.71634,18.032696 48.428328,16.248992 C 47.164728,15.583028 46.873632,15.288968 46.873632,14.75732 C 46.873632,13.398404 48.58464,11.268068 50.110008,10.681196 C 51.348336,10.20212 53.978184,10.361864 56.61006,11.02736 C 57.977244,11.375084 59.714616,11.74808 60.450936,11.854004 L 61.819056,12.039956 L 62.00454,13.531628 C 62.106096,14.357336 62.397192,15.742616 62.660832,16.647884 C 63.68622,19.977548 63.792612,22.615196 63.001692,24.106868 C 62.608104,24.82712 61.371804,25.945796 60.423636,26.45108 C 59.003412,27.223124 58.609824,27.063536 57.529836,25.198244 z "/><path style="fill: rgb(222, 188, 50); fill-opacity: 1; stroke: none; stroke-opacity: 1;" id="path1939" d="M 12.938484,26.317856 C 10.149984,24.82712 9.439872,21.869672 10.728588,17.367668 C 10.965396,16.54196 11.307192,15.024392 11.465376,14.010704 L 11.78034,12.12014 L 12.963912,11.907668 C 13.59618,11.773352 15.358512,11.374928 16.858452,11.000372 C 21.909264,9.77624 24.382332,10.334408 26.118768,13.132268 C 27.092364,14.729864 26.960544,15.262604 25.356084,16.089248 C 22.199268,17.7143 18.832164,20.937884 16.516188,24.585788 C 14.88474,27.170864 14.674296,27.250424 12.938484,26.317856 z "/><path style="fill: rgb(222, 188, 50); fill-opacity: 1; stroke: none; stroke-opacity: 1;" id="path1929" d="M 42.508284,13.824752 C 39.69186,13.052864 34.458528,12.999044 31.616676,13.692464 C 28.092324,14.570432 28.039596,14.570432 27.72354,13.531784 C 26.881764,10.86824 27.144468,8.977052 28.59168,7.270568 C 29.065296,6.711464 30.38022,5.7257 31.512156,5.087972 C 32.668896,4.420916 34.195824,3.43562 34.958508,2.876048 C 35.722128,2.31788 36.484344,1.865324 36.694788,1.865324 C 36.903828,1.865324 37.5102,2.210084 38.036544,2.636276 C 38.588316,3.09086 40.035528,4.021556 41.298192,4.715912 C 45.928116,7.325324 47.032596,9.456128 45.797232,13.531784 C 45.454656,14.543912 45.269952,14.570276 42.508284,13.824752 z "/></g>
</svg>